<svg width="300" height="357" viewBox="0 0 300 357" fill="none" xmlns="http://www.w3.org/2000/svg">
<path d="M162.438 7.42822H139.352V264.426H162.438V7.42822Z" fill="#265CFF"/>
<path fill-rule="evenodd" clip-rule="evenodd" d="M200.273 236.734C219.021 227.396 234.794 213.016 245.819 195.208C256.844 177.401 262.685 156.871 262.685 135.927C262.685 114.983 256.844 94.4533 245.819 76.6456C234.794 58.8379 219.021 44.4575 200.273 35.1204C215.52 59.9827 225.078 95.9335 225.078 135.927C225.078 175.92 215.52 211.958 200.273 236.734ZM99.7267 236.734C80.9788 227.396 65.2061 213.016 54.181 195.208C43.1559 177.401 37.3153 156.871 37.3153 135.927C37.3153 114.983 43.1559 94.4533 54.181 76.6456C65.2061 58.8379 80.9788 44.4575 99.7267 35.1204C84.5089 59.9827 74.922 95.9335 74.922 135.927C74.922 175.92 84.5089 211.958 99.7267 236.734ZM150 0.209106C176.842 0.209106 203.082 8.16882 225.401 23.0817C247.719 37.9946 265.115 59.1908 275.387 83.99C285.659 108.789 288.347 136.078 283.11 162.404C277.873 188.731 264.947 212.914 245.967 231.894C226.986 250.874 202.804 263.8 176.477 269.037C150.151 274.274 122.862 271.586 98.0631 261.314C73.2639 251.042 52.0676 233.646 37.1548 211.328C22.2419 189.009 14.2821 162.769 14.2821 135.927C14.2974 99.9424 28.603 65.4368 54.0534 39.9973C79.5038 14.5577 114.015 0.266868 150 0.266871V0.209106ZM150 248.544C158.49 248.544 171.08 242.047 182.89 220.707C194.238 200.176 201.977 170.261 201.977 135.927C201.977 101.593 194.238 71.6776 182.89 51.1466C171.08 29.8071 158.49 23.31 150 23.31C141.51 23.31 128.949 29.8071 117.139 51.1466C105.762 71.6776 98.0229 101.622 98.0229 135.927C98.0229 170.232 105.762 200.176 117.139 220.707C129.094 242.105 141.51 248.602 150 248.602V248.544Z" fill="#265CFF"/>
<path fill-rule="evenodd" clip-rule="evenodd" d="M60.7911 105.121C50.3427 111.014 41.25 119.438 35.5067 125.453L19.2159 109.9C25.6584 103.152 36.519 92.9512 49.7274 85.5026C62.8233 78.1174 79.8732 72.545 97.6034 78.0442L97.6173 78.0485C129.798 88.0754 145.738 112.727 158.965 133.184C159.183 133.521 159.4 133.857 159.616 134.191C173.575 155.769 184.601 171.954 206.392 177.083C222.951 180.943 234.064 179.891 241.475 177.207C248.75 174.572 253.442 170.01 256.633 164.879C259.924 159.587 261.616 153.656 262.445 148.804C262.852 146.423 263.032 144.419 263.109 143.053C263.148 142.373 263.161 141.86 263.165 141.548C263.167 141.392 263.167 141.287 263.166 141.237C263.166 141.22 263.166 141.209 263.166 141.206L263.166 141.221L263.167 141.248C263.167 141.253 263.167 141.259 274.426 140.98C285.684 140.7 285.684 140.706 285.684 140.713L285.684 140.727L285.685 140.761L285.687 140.847L285.689 141.087C285.691 141.278 285.69 141.53 285.686 141.839C285.679 142.454 285.655 143.298 285.596 144.332C285.479 146.395 285.218 149.252 284.646 152.599C283.518 159.203 281.094 168.195 275.759 176.774C270.323 185.515 261.876 193.772 249.146 198.384C236.552 202.946 220.796 203.569 201.266 199.015L201.245 199.01C169.943 191.648 154.492 167.75 141.395 147.492C141.164 147.136 140.934 146.78 140.705 146.425C126.855 125.017 114.834 107.007 90.9235 99.5543C81.6566 96.6831 71.3491 99.1674 60.7911 105.121ZM263.166 141.206C263.166 141.204 263.166 141.205 263.166 141.206Z" fill="#265CFF"/>
<g clip-path="url(#clip0_229_12272)">
<path d="M68.4199 356.68C62.3486 356.68 57.6055 353.247 57.6055 346.757C57.6055 339.656 63.2973 336.928 69.5108 336.928H74.586C77.7165 336.928 79.1394 335.705 79.1394 333.542C79.1394 330.72 76.5307 329.357 73.1631 329.357C69.1314 329.357 66.5701 331.285 66.3329 334.718H58.8387C59.313 328.04 63.6767 323.713 73.0682 323.713C82.4597 323.713 86.3016 328.228 86.3016 334.483V347.792C86.3016 349.297 86.8708 349.861 88.3886 349.861H89.5744V355.693H84.689C81.2739 355.693 79.3766 354 79.3766 351.084V349.908H79.2817C77.2896 354.517 73.2579 356.68 68.4199 356.68ZM70.6492 350.943C74.918 350.943 79.1394 348.309 79.1394 341.866V338.997H79.0446C78.0959 340.926 76.2461 341.866 73.0208 342.007L70.6966 342.101C66.9495 342.195 65.3368 344.077 65.3368 346.522C65.3368 348.968 66.9495 350.99 70.6966 350.99L70.6492 350.943Z" fill="#0B2471"/>
<path d="M94.4599 347.322V330.532H88.436V324.701H94.4599V316.235H101.669V324.701H111.108V330.532H101.669V346.287C101.669 348.921 103.045 349.955 105.417 349.955H111.251V355.787H102.95C97.3532 355.787 94.4124 353.012 94.4124 347.369L94.4599 347.322Z" fill="#0B2471"/>
<path d="M113.003 340.22C113.003 329.921 119.454 323.76 128.466 323.76C137.478 323.76 143.502 329.074 143.502 339.044V342.242H120.64C120.877 347.557 123.865 351.037 128.656 351.037C132.118 351.037 134.727 349.156 135.723 346.193H143.122C141.747 352.401 136.292 356.68 128.561 356.68C119.311 356.68 113.05 350.472 113.05 340.22H113.003ZM136.292 337.116C136.292 332.601 133.541 329.403 128.656 329.403C123.77 329.403 121.161 332.789 120.687 337.116H136.292Z" fill="#0B2471"/>
<path d="M148.436 324.7H155.503V329.591H155.598C157.068 326.487 159.061 324.7 163.234 324.7H166.27V330.532H161.954C157.638 330.532 155.645 332.836 155.645 337.915V355.739H148.483V324.7H148.436Z" fill="#0B2471"/>
<path d="M167.977 345.44H175.377C175.566 349.344 178.033 351.037 181.733 351.037C185.432 351.037 187.709 349.25 187.709 346.475C187.709 344.029 186.191 342.571 182.302 342.571H178.887C172.341 342.571 168.547 338.997 168.547 333.777C168.547 327.851 173.385 323.76 181.59 323.76C189.796 323.76 194.634 328.181 194.824 334.765H187.472C187.282 331.284 185.385 329.403 181.543 329.403C178.128 329.403 176.041 331.002 176.041 333.542C176.041 335.846 177.796 336.975 180.689 336.975H184.436C191.93 336.975 195.345 341.161 195.345 346.24C195.345 352.401 190.46 356.727 181.733 356.727C173.005 356.727 168.12 352.307 167.93 345.487L167.977 345.44Z" fill="#0B2471"/>
<path d="M200.327 316.329H207.49V324.324C207.49 325.735 207.49 326.817 207.395 329.45H207.49C209.15 326.064 212.375 323.76 216.881 323.76C223.284 323.76 227.695 328.18 227.695 335.705V355.739H220.533V337.116C220.533 331.566 218.162 329.45 214.604 329.45C211.047 329.45 207.49 331.755 207.49 337.962V355.739H200.327V316.329Z" fill="#0B2471"/>
<path d="M232.579 340.22C232.579 329.921 238.982 323.76 248.042 323.76C257.101 323.76 263.078 329.074 263.078 339.044V342.242H240.216C240.453 347.557 243.441 351.037 248.232 351.037C251.694 351.037 254.303 349.156 255.299 346.193H262.698C261.323 352.401 255.868 356.68 248.137 356.68C238.84 356.68 232.627 350.472 232.627 340.22H232.579ZM255.868 337.116C255.868 332.601 253.117 329.403 248.232 329.403C243.346 329.403 240.737 332.789 240.263 337.116H255.868Z" fill="#0B2471"/>
<path d="M266.635 340.22C266.635 329.45 273.276 323.76 280.58 323.76C285.371 323.76 289.165 326.205 291.063 330.156H291.158C291.063 329.074 291.063 328.133 291.063 327.005V316.329H298.225V355.739H291.11V353.67C291.11 352.541 291.11 351.507 291.158 350.331H291.063C289.165 354.282 285.371 356.727 280.58 356.727C273.276 356.727 266.635 351.037 266.635 340.267V340.22ZM282.715 351.037C287.932 351.037 291.063 346.757 291.063 340.22C291.063 333.683 287.932 329.403 282.715 329.403C277.497 329.403 274.319 333.683 274.319 340.22C274.319 346.757 277.45 351.037 282.715 351.037Z" fill="#0B2471"/>
<path fill-rule="evenodd" clip-rule="evenodd" d="M31.4086 340.954L38.0161 355.457H43.8976L61.8268 316H53.5737L41.0043 345.393H40.862L28.3875 316H20.0395L27.8634 333.173L21.9369 346.992H21.842L9.32007 316H1.01953L18.9961 355.457H24.8302L31.4086 340.954Z" fill="#0B2471"/>
</g>
<defs>
<clipPath id="clip0_229_12272">
<rect width="299.238" height="42" fill="white" transform="translate(0 315)"/>
</clipPath>
</defs>
</svg>
